name walk 2
datacolumns 19
datarows 67
range 1.321667 1.376667
endheader
time	ground_force_vx	ground_force_vy	ground_force_vz	ground_torque_x	ground_torque_y	ground_torque_z	ground_force_vx	ground_force_vy	ground_force_vz	ground_torque_x	ground_torque_y	ground_torque_z	ground_force_px	ground_force_py	ground_force_pz	ground_force_px	ground_force_py	ground_force_pz
1.321667	6.845943	535.867737	-11.542871	0.000000	1.112709	0.000000	0.000000	0.000000	0.000000	0.000000	0.000000	0.000000	0.222974	-0.006000	-0.209938	0.000000	0.000000	0.000000	
1.322500	7.500371	538.400921	-11.872170	0.000000	1.123569	0.000000	0.000000	0.000000	0.000000	0.000000	0.000000	0.000000	0.223028	-0.006000	-0.209819	0.000000	0.000000	0.000000	
1.323333	8.164690	540.959282	-12.204595	0.000000	1.134306	0.000000	0.000000	0.000000	0.000000	0.000000	0.000000	0.000000	0.222884	-0.006000	-0.209711	0.000000	0.000000	0.000000	
1.324167	8.838823	543.542352	-12.539744	0.000000	1.144951	0.000000	0.000000	0.000000	0.000000	0.000000	0.000000	0.000000	0.222566	-0.006000	-0.209629	0.000000	0.000000	0.000000	
1.325000	9.522689	546.149633	-12.877223	0.000000	1.155533	0.000000	0.000000	0.000000	0.000000	0.000000	0.000000	0.000000	0.222168	-0.006000	-0.209566	0.000000	0.000000	0.000000	
1.325833	10.216216	548.780648	-13.216640	0.000000	1.166074	0.000000	0.000000	0.000000	0.000000	0.000000	0.000000	0.000000	0.221800	-0.006000	-0.209518	0.000000	0.000000	0.000000	
1.326667	10.919351	551.434985	-13.557596	0.000000	1.176591	0.000000	0.000000	0.000000	0.000000	0.000000	0.000000	0.000000	0.221551	-0.006000	-0.209495	0.000000	0.000000	0.000000	
1.327500	11.632059	554.112275	-13.899685	0.000000	1.187098	0.000000	0.000000	0.000000	0.000000	0.000000	0.000000	0.000000	0.221481	-0.006000	-0.209513	0.000000	0.000000	0.000000	
1.328333	12.354327	556.812145	-14.242499	0.000000	1.197605	0.000000	0.000000	0.000000	0.000000	0.000000	0.000000	0.000000	0.221617	-0.006000	-0.209564	0.000000	0.000000	0.000000	
1.329167	13.086177	559.534202	-14.585620	0.000000	1.208122	0.000000	0.000000	0.000000	0.000000	0.000000	0.000000	0.000000	0.221921	-0.006000	-0.209615	0.000000	0.000000	0.000000	
1.330000	13.827638	562.278013	-14.928597	0.000000	1.218652	0.000000	0.000000	0.000000	0.000000	0.000000	0.000000	0.000000	0.222310	-0.006000	-0.209620	0.000000	0.000000	0.000000	
1.330833	14.578698	565.043123	-15.270948	0.000000	1.229194	0.000000	0.000000	0.000000	0.000000	0.000000	0.000000	0.000000	0.222698	-0.006000	-0.209551	0.000000	0.000000	0.000000	
1.331667	15.339279	567.829098	-15.612183	0.000000	1.239749	0.000000	0.000000	0.000000	0.000000	0.000000	0.000000	0.000000	0.223032	-0.006000	-0.209414	0.000000	0.000000	0.000000	
1.332500	16.109241	570.635585	-15.951841	0.000000	1.250329	0.000000	0.000000	0.000000	0.000000	0.000000	0.000000	0.000000	0.223298	-0.006000	-0.209243	0.000000	0.000000	0.000000	
1.333333	16.888382	573.462304	-16.289496	0.000000	1.260952	0.000000	0.000000	0.000000	0.000000	0.000000	0.000000	0.000000	0.223495	-0.006000	-0.209078	0.000000	0.000000	0.000000	
1.334167	17.676465	576.308998	-16.624757	0.000000	1.271647	0.000000	0.000000	0.000000	0.000000	0.000000	0.000000	0.000000	0.223592	-0.006000	-0.208950	0.000000	0.000000	0.000000	
1.335000	18.473267	579.175439	-16.957275	0.000000	1.282447	0.000000	0.000000	0.000000	0.000000	0.000000	0.000000	0.000000	0.223549	-0.006000	-0.208877	0.000000	0.000000	0.000000	
1.335833	19.278597	582.061445	-17.286732	0.000000	1.293382	0.000000	0.000000	0.000000	0.000000	0.000000	0.000000	0.000000	0.223388	-0.006000	-0.208849	0.000000	0.000000	0.000000	
1.336667	20.092292	584.966879	-17.612831	0.000000	1.304471	0.000000	0.000000	0.000000	0.000000	0.000000	0.000000	0.000000	0.223200	-0.006000	-0.208841	0.000000	0.000000	0.000000	
1.337500	20.914197	587.891618	-17.935282	0.000000	1.315726	0.000000	0.000000	0.000000	0.000000	0.000000	0.000000	0.000000	0.223074	-0.006000	-0.208841	0.000000	0.000000	0.000000	
1.338333	21.744163	590.835526	-18.253794	0.000000	1.327152	0.000000	0.000000	0.000000	0.000000	0.000000	0.000000	0.000000	0.223043	-0.006000	-0.208846	0.000000	0.000000	0.000000	
1.339167	22.582063	593.798438	-18.568045	0.000000	1.338753	0.000000	0.000000	0.000000	0.000000	0.000000	0.000000	0.000000	0.223097	-0.006000	-0.208844	0.000000	0.000000	0.000000	
1.340000	23.427803	596.780196	-18.877671	0.000000	1.350520	0.000000	0.000000	0.000000	0.000000	0.000000	0.000000	0.000000	0.223221	-0.006000	-0.208830	0.000000	0.000000	0.000000	
1.340833	24.281311	599.780685	-19.182298	0.000000	1.362442	0.000000	0.000000	0.000000	0.000000	0.000000	0.000000	0.000000	0.223391	-0.006000	-0.208835	0.000000	0.000000	0.000000	
1.341667	25.142492	602.799811	-19.481580	0.000000	1.374512	0.000000	0.000000	0.000000	0.000000	0.000000	0.000000	0.000000	0.223574	-0.006000	-0.208889	0.000000	0.000000	0.000000	
1.342500	26.011211	605.837474	-19.775205	0.000000	1.386720	0.000000	0.000000	0.000000	0.000000	0.000000	0.000000	0.000000	0.223742	-0.006000	-0.208989	0.000000	0.000000	0.000000	
1.343333	26.887301	608.893571	-20.062889	0.000000	1.399061	0.000000	0.000000	0.000000	0.000000	0.000000	0.000000	0.000000	0.223878	-0.006000	-0.209102	0.000000	0.000000	0.000000	
1.344167	27.770581	611.968030	-20.344379	0.000000	1.411532	0.000000	0.000000	0.000000	0.000000	0.000000	0.000000	0.000000	0.223959	-0.006000	-0.209194	0.000000	0.000000	0.000000	
1.345000	28.660867	615.060835	-20.619442	0.000000	1.424126	0.000000	0.000000	0.000000	0.000000	0.000000	0.000000	0.000000	0.223960	-0.006000	-0.209248	0.000000	0.000000	0.000000	
1.345833	29.557985	618.172022	-20.887877	0.000000	1.436832	0.000000	0.000000	0.000000	0.000000	0.000000	0.000000	0.000000	0.223908	-0.006000	-0.209270	0.000000	0.000000	0.000000	
1.346667	30.461777	621.301677	-21.149523	0.000000	1.449640	0.000000	0.000000	0.000000	0.000000	0.000000	0.000000	0.000000	0.223852	-0.006000	-0.209272	0.000000	0.000000	0.000000	
1.347500	31.372124	624.449911	-21.404253	0.000000	1.462540	0.000000	0.000000	0.000000	0.000000	0.000000	0.000000	0.000000	0.223807	-0.006000	-0.209256	0.000000	0.000000	0.000000	
1.348333	32.288937	627.616833	-21.651937	0.000000	1.475510	0.000000	0.000000	0.000000	0.000000	0.000000	0.000000	0.000000	0.223760	-0.006000	-0.209209	0.000000	0.000000	0.000000	
1.349167	33.212151	630.802533	-21.892419	0.000000	1.488517	0.000000	0.000000	0.000000	0.000000	0.000000	0.000000	0.000000	0.223721	-0.006000	-0.209118	0.000000	0.000000	0.000000	
1.350000	34.141710	634.007106	-22.125528	0.000000	1.501514	0.000000	0.000000	0.000000	0.000000	0.000000	0.000000	0.000000	0.223724	-0.006000	-0.208990	0.000000	0.000000	0.000000	
1.350833	35.077538	637.230667	-22.351114	0.000000	1.514453	0.000000	0.000000	0.000000	0.000000	0.000000	0.000000	0.000000	0.223806	-0.006000	-0.208848	0.000000	0.000000	0.000000	
1.351667	36.019524	640.473322	-22.569057	0.000000	1.527286	0.000000	0.000000	0.000000	0.000000	0.000000	0.000000	0.000000	0.223996	-0.006000	-0.208721	0.000000	0.000000	0.000000	
1.352500	36.967554	643.735119	-22.779278	0.000000	1.539975	0.000000	0.000000	0.000000	0.000000	0.000000	0.000000	0.000000	0.224274	-0.006000	-0.208627	0.000000	0.000000	0.000000	
1.353333	37.921549	647.016018	-22.981746	0.000000	1.552487	0.000000	0.000000	0.000000	0.000000	0.000000	0.000000	0.000000	0.224569	-0.006000	-0.208578	0.000000	0.000000	0.000000	
1.354167	38.881470	650.315879	-23.176472	0.000000	1.564788	0.000000	0.000000	0.000000	0.000000	0.000000	0.000000	0.000000	0.224800	-0.006000	-0.208568	0.000000	0.000000	0.000000	
1.355000	39.847290	653.634492	-23.363500	0.000000	1.576843	0.000000	0.000000	0.000000	0.000000	0.000000	0.000000	0.000000	0.224922	-0.006000	-0.208588	0.000000	0.000000	0.000000	
1.355833	40.818997	656.971629	-23.542904	0.000000	1.588616	0.000000	0.000000	0.000000	0.000000	0.000000	0.000000	0.000000	0.224934	-0.006000	-0.208631	0.000000	0.000000	0.000000	
1.356667	41.796591	660.327065	-23.714784	0.000000	1.600076	0.000000	0.000000	0.000000	0.000000	0.000000	0.000000	0.000000	0.224865	-0.006000	-0.208685	0.000000	0.000000	0.000000	
1.357500	42.780112	663.700568	-23.879244	0.000000	1.611186	0.000000	0.000000	0.000000	0.000000	0.000000	0.000000	0.000000	0.224753	-0.006000	-0.208715	0.000000	0.000000	0.000000	
1.358333	43.769646	667.091881	-24.036375	0.000000	1.621907	0.000000	0.000000	0.000000	0.000000	0.000000	0.000000	0.000000	0.224628	-0.006000	-0.208699	0.000000	0.000000	0.000000	
1.359167	44.765306	670.500708	-24.186271	0.000000	1.632193	0.000000	0.000000	0.000000	0.000000	0.000000	0.000000	0.000000	0.224522	-0.006000	-0.208653	0.000000	0.000000	0.000000	
1.360000	45.767192	673.926674	-24.329047	0.000000	1.641996	0.000000	0.000000	0.000000	0.000000	0.000000	0.000000	0.000000	0.224476	-0.006000	-0.208603	0.000000	0.000000	0.000000	
1.360833	46.775360	677.369286	-24.464833	0.000000	1.651266	0.000000	0.000000	0.000000	0.000000	0.000000	0.000000	0.000000	0.224530	-0.006000	-0.208573	0.000000	0.000000	0.000000	
1.361667	47.789822	680.827903	-24.593777	0.000000	1.659955	0.000000	0.000000	0.000000	0.000000	0.000000	0.000000	0.000000	0.224679	-0.006000	-0.208587	0.000000	0.000000	0.000000	
1.362500	48.810566	684.301712	-24.716047	0.000000	1.668026	0.000000	0.000000	0.000000	0.000000	0.000000	0.000000	0.000000	0.224864	-0.006000	-0.208670	0.000000	0.000000	0.000000	
1.363333	49.837590	687.789710	-24.831836	0.000000	1.675445	0.000000	0.000000	0.000000	0.000000	0.000000	0.000000	0.000000	0.225026	-0.006000	-0.208823	0.000000	0.000000	0.000000	
1.364167	50.870918	691.290761	-24.941361	0.000000	1.682176	0.000000	0.000000	0.000000	0.000000	0.000000	0.000000	0.000000	0.225164	-0.006000	-0.209007	0.000000	0.000000	0.000000	
1.365000	51.910593	694.803655	-25.044855	0.000000	1.688185	0.000000	0.000000	0.000000	0.000000	0.000000	0.000000	0.000000	0.225308	-0.006000	-0.209169	0.000000	0.000000	0.000000	
1.365833	52.956677	698.327132	-25.142555	0.000000	1.693436	0.000000	0.000000	0.000000	0.000000	0.000000	0.000000	0.000000	0.225453	-0.006000	-0.209269	0.000000	0.000000	0.000000	
1.366667	54.009265	701.859861	-25.234666	0.000000	1.697894	0.000000	0.000000	0.000000	0.000000	0.000000	0.000000	0.000000	0.225572	-0.006000	-0.209278	0.000000	0.000000	0.000000	
1.367500	55.068474	705.400457	-25.321345	0.000000	1.701515	0.000000	0.000000	0.000000	0.000000	0.000000	0.000000	0.000000	0.225661	-0.006000	-0.209190	0.000000	0.000000	0.000000	
1.368333	56.134418	708.947521	-25.402712	0.000000	1.704257	0.000000	0.000000	0.000000	0.000000	0.000000	0.000000	0.000000	0.225729	-0.006000	-0.209029	0.000000	0.000000	0.000000	
1.369167	57.207219	712.499613	-25.478896	0.000000	1.706087	0.000000	0.000000	0.000000	0.000000	0.000000	0.000000	0.000000	0.225763	-0.006000	-0.208849	0.000000	0.000000	0.000000	
1.370000	58.287012	716.055188	-25.550052	0.000000	1.706975	0.000000	0.000000	0.000000	0.000000	0.000000	0.000000	0.000000	0.225750	-0.006000	-0.208704	0.000000	0.000000	0.000000	
1.370833	59.373938	719.612577	-25.616359	0.000000	1.706900	0.000000	0.000000	0.000000	0.000000	0.000000	0.000000	0.000000	0.225712	-0.006000	-0.208636	0.000000	0.000000	0.000000	
1.371667	60.468139	723.170045	-25.678020	0.000000	1.705846	0.000000	0.000000	0.000000	0.000000	0.000000	0.000000	0.000000	0.225713	-0.006000	-0.208659	0.000000	0.000000	0.000000	
1.372500	61.569757	726.725860	-25.735262	0.000000	1.703804	0.000000	0.000000	0.000000	0.000000	0.000000	0.000000	0.000000	0.225807	-0.006000	-0.208755	0.000000	0.000000	0.000000	
1.373333	62.678933	730.278310	-25.788335	0.000000	1.700773	0.000000	0.000000	0.000000	0.000000	0.000000	0.000000	0.000000	0.225997	-0.006000	-0.208889	0.000000	0.000000	0.000000	
1.374167	63.795839	733.825682	-25.837494	0.000000	1.696755	0.000000	0.000000	0.000000	0.000000	0.000000	0.000000	0.000000	0.226246	-0.006000	-0.209018	0.000000	0.000000	0.000000	
1.375000	64.920677	737.366272	-25.882997	0.000000	1.691758	0.000000	0.000000	0.000000	0.000000	0.000000	0.000000	0.000000	0.226514	-0.006000	-0.209106	0.000000	0.000000	0.000000	
1.375833	66.053669	740.898408	-25.925120	0.000000	1.685797	0.000000	0.000000	0.000000	0.000000	0.000000	0.000000	0.000000	0.226783	-0.006000	-0.209148	0.000000	0.000000	0.000000	
1.376667	67.195055	744.420472	-25.964173	0.000000	1.678893	0.000000	0.000000	0.000000	0.000000	0.000000	0.000000	0.000000	0.227047	-0.006000	-0.209153	0.000000	0.000000	0.000000	
